<?xml version="1.0" encoding="UTF-8" standalone="no"?>
<!-- Created with Inkscape (http://www.inkscape.org/) -->

<svg
   width="300mm"
   height="300.00003mm"
   viewBox="0 0 300 300.00003"
   version="1.1"
   id="svg5"
   inkscape:version="1.2.1 (9c6d41e, 2022-07-14)"
   sodipodi:docname="and the lord did grin.svg"
   inkscape:export-filename="AA logo/tree_darkgreen.svg"
   inkscape:export-xdpi="42.760944"
   inkscape:export-ydpi="42.760944"
   xmlns:inkscape="http://www.inkscape.org/namespaces/inkscape"
   xmlns:sodipodi="http://sodipodi.sourceforge.net/DTD/sodipodi-0.dtd"
   xmlns="http://www.w3.org/2000/svg"
   xmlns:svg="http://www.w3.org/2000/svg">
  <sodipodi:namedview
     id="namedview7"
     pagecolor="#505050"
     bordercolor="#eeeeee"
     borderopacity="1"
     inkscape:showpageshadow="0"
     inkscape:pageopacity="0"
     inkscape:pagecheckerboard="0"
     inkscape:deskcolor="#505050"
     inkscape:document-units="px"
     showgrid="false"
     inkscape:zoom="0.35678662"
     inkscape:cx="874.47226"
     inkscape:cy="-875.87366"
     inkscape:window-width="1920"
     inkscape:window-height="951"
     inkscape:window-x="1920"
     inkscape:window-y="25"
     inkscape:window-maximized="1"
     inkscape:current-layer="g9038"
     showborder="false" />
  <defs
     id="defs2">
    <inkscape:path-effect
       effect="mirror_symmetry"
       start_point="153.62034,36.866925"
       end_point="153.62034,43.481509"
       center_point="153.62034,40.174217"
       id="path-effect968"
       is_visible="true"
       lpeversion="1.2"
       lpesatellites=""
       mode="free"
       discard_orig_path="false"
       fuse_paths="false"
       oposite_fuse="false"
       split_items="false"
       split_open="false"
       link_styles="false" />
    <inkscape:path-effect
       effect="mirror_symmetry"
       start_point="153.62034,64.866479"
       end_point="153.62034,71.481063"
       center_point="153.62034,68.173771"
       id="path-effect964"
       is_visible="true"
       lpeversion="1.2"
       lpesatellites=""
       mode="free"
       discard_orig_path="false"
       fuse_paths="false"
       oposite_fuse="false"
       split_items="false"
       split_open="false"
       link_styles="false" />
    <inkscape:path-effect
       effect="mirror_symmetry"
       start_point="153.62034,93.367912"
       end_point="153.62034,99.982496"
       center_point="153.62034,96.675204"
       id="path-effect960"
       is_visible="true"
       lpeversion="1.2"
       lpesatellites=""
       mode="free"
       discard_orig_path="false"
       fuse_paths="false"
       oposite_fuse="false"
       split_items="false"
       split_open="false"
       link_styles="false" />
    <inkscape:path-effect
       effect="mirror_symmetry"
       start_point="153.62034,121.86935"
       end_point="153.62034,128.48393"
       center_point="153.62034,125.17664"
       id="path-effect956"
       is_visible="true"
       lpeversion="1.2"
       lpesatellites=""
       mode="free"
       discard_orig_path="false"
       fuse_paths="false"
       oposite_fuse="false"
       split_items="false"
       split_open="false"
       link_styles="false" />
    <inkscape:path-effect
       effect="mirror_symmetry"
       start_point="153.62034,149.9073"
       end_point="153.62034,156.52188"
       center_point="153.62034,153.21459"
       id="path-effect952"
       is_visible="true"
       lpeversion="1.2"
       lpesatellites=""
       mode="free"
       discard_orig_path="false"
       fuse_paths="false"
       oposite_fuse="false"
       split_items="false"
       split_open="false"
       link_styles="false" />
  </defs>
  <g
     inkscape:label="white"
     inkscape:groupmode="layer"
     id="g948"
     transform="translate(1.3818359e-5,1.1689453e-5)"
     inkscape:export-filename="AA logo/lightgray.svg"
     inkscape:export-xdpi="42.760944"
     inkscape:export-ydpi="42.760944">
    <circle
       style="fill:none;fill-opacity:1;stroke:#ffffff;stroke-width:2.64584;stroke-linecap:round;stroke-linejoin:round;stroke-dasharray:none;stroke-opacity:1"
       id="circle934"
       cx="150"
       cy="150"
       r="148.67708" />
    <rect
       style="fill:#ffffff;fill-opacity:1;stroke:none;stroke-width:1.32292;stroke-linecap:round;stroke-linejoin:round;stroke-dasharray:none;stroke-opacity:1"
       id="rect936"
       width="8.2020798"
       height="274.48532"
       x="145.89896"
       y="12.757339"
       ry="5.7024436" />
    <path
       style="display:inline;fill:#ffffff;fill-opacity:1;stroke:none;stroke-width:1.19515;stroke-linecap:round;stroke-linejoin:round;stroke-dasharray:none;stroke-opacity:1"
       id="path938"
       width="131.09282"
       height="6.6145835"
       x="12.060545"
       y="150"
       ry="3.3072917"
       inkscape:path-effect="#path-effect952"
       class="UnoptimicedTransforms"
       d="M 15.367837,150 H 139.84607 c 1.83224,0 3.30729,1.47505 3.30729,3.30729 0,1.83224 -1.47505,3.30729 -3.30729,3.30729 H 15.367837 c -1.83224,0 -3.307292,-1.47505 -3.307292,-3.30729 0,-1.83224 1.475052,-3.30729 3.307292,-3.30729 z m 276.505003,0 H 167.39461 c -1.83224,0 -3.30729,1.47505 -3.30729,3.30729 0,1.83224 1.47505,3.30729 3.30729,3.30729 h 124.47823 c 1.83224,0 3.3073,-1.47505 3.3073,-3.30729 0,-1.83224 -1.47506,-3.30729 -3.3073,-3.30729 z"
       sodipodi:type="rect"
       transform="matrix(0.99118054,0,0,1.2361347,-2.6108279,-12.395016)" />
    <path
       style="display:inline;fill:#ffffff;fill-opacity:1;stroke:none;stroke-width:1.19515;stroke-linecap:round;stroke-linejoin:round;stroke-dasharray:none;stroke-opacity:1"
       id="path940"
       width="100.67928"
       height="6.6145835"
       x="42.474079"
       y="121.68396"
       ry="3.3072917"
       inkscape:path-effect="#path-effect956"
       class="UnoptimicedTransforms"
       d="m 45.781371,121.68396 h 94.064699 c 1.83224,0 3.30729,1.47505 3.30729,3.30729 0,1.83224 -1.47505,3.30729 -3.30729,3.30729 H 45.781371 c -1.83224,0 -3.307292,-1.47505 -3.307292,-3.30729 0,-1.83224 1.475052,-3.30729 3.307292,-3.30729 z m 215.677939,0 h -94.0647 c -1.83224,0 -3.30729,1.47505 -3.30729,3.30729 0,1.83224 1.47505,3.30729 3.30729,3.30729 h 94.0647 c 1.83224,0 3.30729,-1.47505 3.30729,-3.30729 0,-1.83224 -1.47505,-3.30729 -3.30729,-3.30729 z"
       sodipodi:type="rect"
       transform="matrix(0.99118054,0,0,1.2361347,-2.6108279,-12.395016)" />
    <path
       style="display:inline;fill:#ffffff;fill-opacity:1;stroke:none;stroke-width:1.19515;stroke-linecap:round;stroke-linejoin:round;stroke-dasharray:none;stroke-opacity:1"
       id="path942"
       width="72.363235"
       height="6.6145835"
       x="70.790131"
       y="93.367912"
       ry="3.3072917"
       inkscape:path-effect="#path-effect960"
       class="UnoptimicedTransforms"
       d="m 74.097422,93.367912 h 65.748648 c 1.83224,0 3.3073,1.475052 3.3073,3.307292 0,1.83224 -1.47506,3.307292 -3.3073,3.307292 H 74.097422 c -1.832239,0 -3.307291,-1.475052 -3.307291,-3.307292 0,-1.83224 1.475052,-3.307292 3.307291,-3.307292 z m 159.045838,0 h -65.74865 c -1.83224,0 -3.3073,1.475052 -3.3073,3.307292 0,1.83224 1.47506,3.307292 3.3073,3.307292 h 65.74865 c 1.83224,0 3.30729,-1.475052 3.30729,-3.307292 0,-1.83224 -1.47505,-3.307292 -3.30729,-3.307292 z"
       sodipodi:type="rect"
       transform="matrix(0.99118054,0,0,1.2361347,-2.6108279,-12.395016)" />
    <path
       style="display:inline;fill:#ffffff;fill-opacity:1;stroke:none;stroke-width:1.19515;stroke-linecap:round;stroke-linejoin:round;stroke-dasharray:none;stroke-opacity:1"
       id="path944"
       width="50.339642"
       height="6.6145835"
       x="92.813721"
       y="65.051872"
       ry="3.3072917"
       inkscape:path-effect="#path-effect964"
       class="UnoptimicedTransforms"
       d="m 96.121012,65.051872 h 43.725058 c 1.83224,0 3.30729,1.475052 3.30729,3.307292 0,1.83224 -1.47505,3.307292 -3.30729,3.307292 H 96.121012 c -1.832239,0 -3.307291,-1.475052 -3.307291,-3.307292 0,-1.83224 1.475052,-3.307292 3.307291,-3.307292 z m 114.998658,0 h -43.72506 c -1.83224,0 -3.30729,1.475052 -3.30729,3.307292 0,1.83224 1.47505,3.307292 3.30729,3.307292 h 43.72506 c 1.83224,0 3.30729,-1.475052 3.30729,-3.307292 0,-1.83224 -1.47505,-3.307292 -3.30729,-3.307292 z"
       sodipodi:type="rect"
       transform="matrix(0.99118054,0,0,1.2361347,-2.6108279,-12.395016)" />
    <path
       style="display:inline;fill:#ffffff;fill-opacity:1;stroke:none;stroke-width:1.19515;stroke-linecap:round;stroke-linejoin:round;stroke-dasharray:none;stroke-opacity:1"
       id="path946"
       width="25.169821"
       height="6.6145835"
       x="117.98354"
       y="36.735832"
       ry="3.3072917"
       inkscape:path-effect="#path-effect968"
       class="UnoptimicedTransforms"
       d="m 121.29084,36.735832 h 18.55523 c 1.83224,0 3.30729,1.475052 3.30729,3.307292 0,1.83224 -1.47505,3.307292 -3.30729,3.307292 h -18.55523 c -1.83224,0 -3.3073,-1.475052 -3.3073,-3.307292 0,-1.83224 1.47506,-3.307292 3.3073,-3.307292 z m 64.659,0 h -18.55523 c -1.83224,0 -3.30729,1.475052 -3.30729,3.307292 0,1.83224 1.47505,3.307292 3.30729,3.307292 h 18.55523 c 1.83224,0 3.3073,-1.475052 3.3073,-3.307292 0,-1.83224 -1.47506,-3.307292 -3.3073,-3.307292 z"
       sodipodi:type="rect"
       transform="matrix(0.99118054,0,0,1.2361347,-2.6108279,-12.395016)" />
  </g>
</svg>
